<svg width="220" height="60" viewBox="0 0 220 60" xmlns="http://www.w3.org/2000/svg" role="img" aria-label="Logomarca Pizzaria Bella Napoli">
  <defs>
    <linearGradient id="heat" x1="0" y1="0" x2="1" y2="1">
      <stop offset="0%" stop-color="#FF5A3D"/>
      <stop offset="100%" stop-color="#FFB347"/>
    </linearGradient>
  </defs>
  <!-- Forno à lenha estilizado -->
  <g transform="translate(10,10)">
    <path d="M0 30 A30 30 0 0 1 60 30 L60 40 L0 40 Z" fill="#4A2C2A"/>
    <circle cx="30" cy="30" r="20" fill="#2E1B1A"/>
    <path d="M22 36 C22 28, 26 24, 30 24 C34 24, 38 28, 38 36 C36 34, 33 33, 30 33 C27 33, 24 34, 22 36 Z" fill="url(#heat)"/>
    <rect x="18" y="38" width="24" height="4" rx="2" fill="#C76D3A"/>
    <!-- Fumaça -->
    <path d="M30 18 c4 -8 16 -10 22 -6 c6 4 4 12 -2 14" fill="none" stroke="#B3B3B3" stroke-width="2" stroke-linecap="round"/>
  </g>
  <!-- Texto -->
  <g transform="translate(80,12)">
    <text x="0" y="20" font-family="Poppins, Arial, sans-serif" font-size="22" font-weight="700" fill="#E53935">Bella Napoli</text>
    <text x="0" y="42" font-family="Poppins, Arial, sans-serif" font-size="14" font-weight="600" fill="#2E7D32">Pizzaria & Forno à Lenha</text>
  </g>
  <!-- Folha de manjericão -->
  <path d="M190 30 C195 25, 205 25, 210 30 C205 35, 195 35, 190 30 Z" fill="#2E7D32"/>
</svg>
